<svg xmlns="http://www.w3.org/2000/svg" version="1.1" viewBox="94.88 270.64 450.12 98.98">
<path d="M0 0 C0.88171875 -0.01611328 1.7634375 -0.03222656 2.671875 -0.04882812 C16.75036814 -0.0591496 27.42643091 6.000763 37.625 15.3125 C33.82024578 19.87280824 29.87530379 24.16339392 25.625 28.3125 C21.79725513 26.5112083 18.48544134 24.18560342 15.0390625 21.75 C7.63723909 17.34244173 -0.57531 17.40713881 -8.90234375 18.70703125 C-16.33364758 20.73137588 -21.86376047 25.60702656 -26.1328125 31.90625 C-30.68738258 40.2372224 -32.44343623 49.11907842 -34.375 58.3125 C-37.39480192 72.42846768 -40.9382131 84.63947756 -53.375 93.3125 C-63.62985401 98.96581695 -75.1857448 99.9483801 -86.62109375 97.6640625 C-96.46879093 94.39546514 -103.13822442 88.74048151 -108.18359375 79.7421875 C-112.84274577 70.24057257 -113.81057541 59.43397462 -110.375 49.3125 C-105.67451066 38.96811324 -98.99205386 31.80801538 -88.375 27.4375 C-78.48889356 24.54104425 -67.07010133 25.29026211 -57.57421875 29.046875 C-53.14867894 31.59372207 -53.14867894 31.59372207 -51.375 34.3125 C-51.42477852 37.6362942 -52.19877281 40.72299571 -53 43.9375 C-53.28810547 45.24460937 -53.28810547 45.24460937 -53.58203125 46.578125 C-55.06345888 53.00095888 -55.06345888 53.00095888 -57.375 55.3125 C-57.68953125 54.76980469 -58.0040625 54.22710937 -58.328125 53.66796875 C-61.36882539 48.58487021 -63.57747142 45.24500953 -69.375 43.3125 C-75.59687421 42.8045919 -81.12003901 42.55895644 -86.375 46.3125 C-91.32495496 51.14995599 -93.23536651 55.62245744 -93.44140625 62.54296875 C-93.07007601 69.08063149 -90.70463072 74.23432577 -85.875 78.69921875 C-80.84214148 82.14721076 -75.26167752 82.0338629 -69.375 81.3125 C-64.37625891 79.64625297 -61.08449538 76.80220817 -58.375 72.3125 C-55.02582372 64.73421804 -53.37059444 56.99379694 -51.9375 48.875 C-48.61811593 31.40024716 -43.04902784 18.29404371 -28.375 7.3125 C-19.24330298 1.72571642 -10.56467678 -0.03827781 0 0 Z " fill="#454545" transform="translate(380.375,270.6875)"/>
<path d="M0 0 C5.83946539 4.89691717 9.51310255 11.01964412 10.26254272 18.68548584 C10.3455188 21.77380556 10.33749315 24.84838976 10.29296875 27.9375 C10.28872391 29.05817871 10.28447906 30.17885742 10.28010559 31.33349609 C10.26340311 34.88924874 10.22576568 38.44442059 10.1875 42 C10.17244231 44.42056469 10.1587558 46.84113833 10.14648438 49.26171875 C10.11352706 55.17470065 10.06180241 61.08725208 10 67 C4.06 67 -1.88 67 -8 67 C-8 65.68 -8 64.36 -8 63 C-8.54269531 63.27714844 -9.08539063 63.55429687 -9.64453125 63.83984375 C-10.71767578 64.38318359 -10.71767578 64.38318359 -11.8125 64.9375 C-12.87404297 65.47697266 -12.87404297 65.47697266 -13.95703125 66.02734375 C-21.13422728 69.44440266 -31.15459381 69.03359887 -38.875 67.38671875 C-45.62973749 64.72469547 -50.33786402 59.46880551 -53.4375 53 C-54.7453836 46.02462078 -54.3827572 41.2989272 -51 35 C-47.03938167 29.22881329 -42.46443906 26.19051708 -35.7734375 24.40625 C-32.05563291 23.86167017 -28.37363606 23.81577678 -24.625 23.8125 C-23.53058594 23.79413086 -23.53058594 23.79413086 -22.4140625 23.77539062 C-17.56702885 23.7624075 -13.59998934 24.46464736 -9 26 C-9.06944832 19.65499856 -9.06944832 19.65499856 -12.375 14.5 C-18.51361036 10.99222265 -24.69979303 11.17588475 -31.44140625 12.859375 C-34.65077585 13.84908004 -37.82946528 14.89275856 -41 16 C-41.99 16.33 -42.98 16.66 -44 17 C-45.00484204 15.04414675 -46.00373805 13.08523763 -47 11.125 C-47.556875 10.03445313 -48.11375 8.94390625 -48.6875 7.8203125 C-50 5 -50 5 -50 3 C-47.03137757 1.58739464 -44.03013685 0.27512546 -41 -1 C-39.95005859 -1.46212891 -39.95005859 -1.46212891 -38.87890625 -1.93359375 C-27.7264533 -6.08842916 -10.26025328 -6.48783334 0 0 Z M-34.5 40.1875 C-36.51794556 43.97114792 -36.18553995 45.92470641 -35 50 C-32.40160589 53.29129921 -30.28445488 54.72017721 -26.0546875 55.23828125 C-19.93924823 55.44651305 -15.29680482 54.06833937 -10 51 C-7.75675164 49.18806994 -7.75675164 49.18806994 -7.8046875 46.6171875 C-7.82789063 45.71226562 -7.85109375 44.80734375 -7.875 43.875 C-7.89304687 42.96492188 -7.91109375 42.05484375 -7.9296875 41.1171875 C-7.95289063 40.41851562 -7.97609375 39.71984375 -8 39 C-16.29535469 35.29291841 -27.26196376 33.85421829 -34.5 40.1875 Z " fill="#515151" transform="translate(475,301)"/>
<path d="M0 0 C6.70589199 5.5396499 9.69901305 11.59673024 11 20 C11.25280185 23.63937876 11.25786275 27.25929701 11.23046875 30.90625 C11.23001053 31.91216187 11.22955231 32.91807373 11.2290802 33.95446777 C11.2260786 36.06210523 11.21825575 38.1697409 11.20581055 40.27734375 C11.18739598 43.518308 11.18530223 46.75898856 11.18554688 50 C11.18063686 52.05208582 11.17481081 54.10416971 11.16796875 56.15625 C11.16685593 57.12904907 11.1657431 58.10184814 11.16459656 59.10412598 C11.15821671 59.99595581 11.15183685 60.88778564 11.14526367 61.80664062 C11.14145187 62.59445923 11.13764008 63.38227783 11.13371277 64.19396973 C11 66 11 66 10 67 C7.13732433 67.07325168 4.299281 67.09238205 1.4375 67.0625 C0.63119141 67.05798828 -0.17511719 67.05347656 -1.00585938 67.04882812 C-3.00393756 67.03700518 -5.00197783 67.01906914 -7 67 C-7.01458252 65.70376709 -7.02916504 64.40753418 -7.04418945 63.07202148 C-7.10235099 58.24297092 -7.17958291 53.41437793 -7.26245117 48.58569336 C-7.29561661 46.49950613 -7.32367443 44.41323098 -7.34643555 42.3269043 C-7.38013569 39.32042121 -7.43245968 36.31473775 -7.48828125 33.30859375 C-7.49467117 32.38227646 -7.5010611 31.45595917 -7.50764465 30.50157166 C-7.64831946 24.24478152 -8.24291393 18.75137782 -12.88671875 14.1171875 C-17.19133798 11.84154776 -22.32728649 11.38866099 -27.06640625 12.47265625 C-30.84621988 13.96662146 -33.64665595 15.72128166 -36 19 C-36.628551 22.6221075 -36.60499515 26.22138832 -36.609375 29.890625 C-36.62591125 30.95037537 -36.64244751 32.01012573 -36.65948486 33.10198975 C-36.70804555 36.48471831 -36.72935437 39.86699705 -36.75 43.25 C-36.77815283 45.54429356 -36.80807928 47.8385661 -36.83984375 50.1328125 C-36.91380714 55.75517132 -36.96333283 61.37727923 -37 67 C-42.94 67 -48.88 67 -55 67 C-55 43.9 -55 20.8 -55 -3 C-49.06 -3 -43.12 -3 -37 -3 C-36.67 -1.35 -36.34 0.3 -36 2 C-35.39671875 1.65066406 -34.7934375 1.30132812 -34.171875 0.94140625 C-33.37265625 0.48636719 -32.5734375 0.03132813 -31.75 -0.4375 C-30.56664062 -1.11619141 -30.56664062 -1.11619141 -29.359375 -1.80859375 C-20.27053799 -6.39815548 -8.61860361 -4.95489009 0 0 Z " fill="#47453D" transform="translate(181,301)"/>
<path d="M0 0 C2.93902349 -0.13481759 5.87189559 -0.23399416 8.8125 -0.3125 C10.06256836 -0.3753418 10.06256836 -0.3753418 11.33789062 -0.43945312 C12.14033203 -0.45556641 12.94277344 -0.47167969 13.76953125 -0.48828125 C14.50792236 -0.51446533 15.24631348 -0.54064941 16.00708008 -0.56762695 C18 0 18 0 19.52734375 1.953125 C21.47354747 5.97975339 23.15426768 10.07831565 24.79296875 14.23828125 C25.14386063 15.11904831 25.4947525 15.99981537 25.85627747 16.90727234 C26.97075892 19.70741572 28.07920566 22.50990279 29.1875 25.3125 C29.94426385 27.21695492 30.70142097 29.12125362 31.45898438 31.02539062 C33.3105497 35.68179655 35.15670827 40.34031303 37 45 C40.39565875 41.15940642 41.92476982 36.60309939 43.7578125 31.89453125 C44.2805928 30.57481575 44.2805928 30.57481575 44.81393433 29.22843933 C45.92338252 26.42536007 47.02464176 23.61915862 48.125 20.8125 C49.23370909 17.99563049 50.34414511 15.17946657 51.45748901 12.36442566 C52.1493755 10.6139028 52.83835406 8.86222737 53.52420044 7.10932922 C53.83477386 6.32148544 54.14534729 5.53364166 54.46533203 4.72192383 C54.73830109 4.02561356 55.01127014 3.32930328 55.29251099 2.6118927 C56 1 56 1 57 0 C58.34267413 -0.08631874 59.68974322 -0.10706473 61.03515625 -0.09765625 C61.84404297 -0.09443359 62.65292969 -0.09121094 63.48632812 -0.08789062 C64.33646484 -0.07951172 65.18660156 -0.07113281 66.0625 -0.0625 C66.91650391 -0.05798828 67.77050781 -0.05347656 68.65039062 -0.04882812 C70.76695663 -0.03700373 72.88348685 -0.01906769 75 0 C74.3187648 4.4280288 72.74576499 8.35137303 71.0078125 12.44921875 C70.70577408 13.17160736 70.40373566 13.89399597 70.09254456 14.63827515 C69.10791325 16.98995542 68.11664958 19.33877157 67.125 21.6875 C66.44473374 23.30706978 65.76480433 24.92678108 65.08520508 26.54663086 C63.71563769 29.80861817 62.3431609 33.0693581 60.96826172 36.32910156 C59.44736647 39.93568761 57.93298329 43.54493173 56.42303467 47.15611267 C55.18075024 50.12612342 53.93398162 53.09424884 52.6875 56.0625 C52.23842285 57.13653076 51.7893457 58.21056152 51.32666016 59.31713867 C50.91335449 60.29658447 50.50004883 61.27603027 50.07421875 62.28515625 C49.71932373 63.12957275 49.36442871 63.97398926 48.9987793 64.84399414 C48 67 48 67 46 70 C43.04935852 70.2208564 40.31631769 70.28060989 37.375 70.1875 C36.17230469 70.16719727 36.17230469 70.16719727 34.9453125 70.14648438 C32.96325622 70.11109051 30.98154449 70.05728234 29 70 C22.36474685 57.5154115 17.07122418 44.4969518 11.6875 31.4375 C10.77324517 29.23092968 9.85853484 27.02454802 8.94335938 24.81835938 C4.03001963 12.96344434 4.03001963 12.96344434 2 8 C1.62974197 7.138871 1.25948395 6.277742 0.87800598 5.39051819 C0 3 0 3 0 0 Z " fill="#51524A" transform="translate(194,298)"/>
<path d="M0 0 C0 32.01 0 64.02 0 97 C-5.94 97 -11.88 97 -18 97 C-19.86687577 95.13312423 -19.12006498 92.45718552 -19.12442017 89.97367859 C-19.12082489 89.10765518 -19.11722961 88.24163177 -19.11352539 87.34936523 C-19.11367142 86.44213715 -19.11381744 85.53490906 -19.1139679 84.60018921 C-19.11326841 81.58630015 -19.10547434 78.57247207 -19.09765625 75.55859375 C-19.0957922 73.47494033 -19.09436824 71.39128646 -19.09336853 69.30763245 C-19.08954234 63.81176554 -19.0797112 58.31592487 -19.06866455 52.82006836 C-19.0584526 47.21663773 -19.05387137 41.61320287 -19.04882812 36.00976562 C-19.03808902 25.00649886 -19.02101139 14.00325161 -19 3 C-12.39701719 1.08225057 -6.91575049 0 0 0 Z " fill="#555555" transform="translate(515,271)"/>
<path d="M0 0 C0.79792969 0.00386719 1.59585938 0.00773437 2.41796875 0.01171875 C3.21589844 0.00785156 4.01382813 0.00398438 4.8359375 0 C10.79136108 0.01011108 10.79136108 0.01011108 11.91796875 1.13671875 C12.01855118 4.05329504 12.05412086 6.94622821 12.04736328 9.86328125 C12.0491156 10.77865662 12.05086792 11.69403198 12.05267334 12.637146 C12.05709336 15.67868924 12.05415334 18.72017486 12.05078125 21.76171875 C12.05145425 23.86539725 12.05242423 25.96907567 12.05368042 28.07275391 C12.0551576 32.48796324 12.0530022 36.90315238 12.04833984 41.31835938 C12.04264255 46.99164436 12.04592145 52.66488204 12.05191231 58.33816528 C12.05551739 62.68400431 12.05437958 67.02983203 12.05178452 71.37567139 C12.0511151 73.46816005 12.05194418 75.56064972 12.05426407 77.65313721 C12.05678973 80.57217141 12.05295123 83.49112787 12.04736328 86.41015625 C12.04938751 87.28395935 12.05141174 88.15776245 12.05349731 89.05804443 C12.03223111 95.02245639 12.03223111 95.02245639 10.91796875 96.13671875 C9.57529462 96.22303749 8.22822553 96.24378348 6.8828125 96.234375 C6.07392578 96.23115234 5.26503906 96.22792969 4.43164062 96.22460938 C3.58150391 96.21623047 2.73136719 96.20785156 1.85546875 96.19921875 C1.00146484 96.19470703 0.14746094 96.19019531 -0.73242188 96.18554688 C-2.84898788 96.17372248 -4.9655181 96.15578644 -7.08203125 96.13671875 C-7.10515279 83.7675316 -7.12294537 71.39834956 -7.13384342 59.02914524 C-7.13907266 53.28626813 -7.14617105 47.54340574 -7.1574707 41.80053711 C-7.16829812 36.2633188 -7.17430777 30.72611471 -7.17690849 25.18888664 C-7.17876301 23.07127598 -7.18238411 20.95366613 -7.18776131 18.83606148 C-7.19496981 15.88100601 -7.19602227 12.92601004 -7.19555664 9.97094727 C-7.19915192 9.08622238 -7.20274719 8.2014975 -7.20645142 7.28996277 C-7.19431103 0.21838857 -7.11262018 0.01207576 0 0 Z " fill="#46433C" transform="translate(102.08203125,271.86328125)"/>
<path d="M0 0 C0 32.01 0 64.02 0 97 C-5.94 97 -11.88 97 -18 97 C-18 65.65 -18 34.3 -18 2 C-6 0 -6 0 0 0 Z " fill="#535353" transform="translate(545,271)"/>
<path d="M0 0 C0.33 0 0.66 0 1 0 C1.22042969 0.92619141 1.22042969 0.92619141 1.4453125 1.87109375 C3.59868273 10.00192273 6.72355933 17.15616723 13.9375 21.9375 C21.65447063 26.15999337 29.87572506 27.31302921 38.49609375 25.46484375 C44.51764221 23.60659186 49.73868937 20.73478958 54 16 C57.47775179 17.51553404 59.9557984 19.5773456 62.75 22.125 C63.54921875 22.84945313 64.3484375 23.57390625 65.171875 24.3203125 C65.77515625 24.87460937 66.3784375 25.42890625 67 26 C66.27704849 30.84485417 63.32533734 32.9616907 59.74609375 36.03125 C48.12245064 44.36455886 34.76692753 45.0233721 21 44 C9.83544558 42.06946246 -0.48974589 36.54615122 -8 28 C-6 22 -6 22 -5.26953125 20.01953125 C-3.30508136 14.5449983 -2.25800536 9.16087936 -1.4296875 3.40625 C-1 1 -1 1 0 0 Z " fill="#3C3B3A" transform="translate(350,325)"/>
</svg>